<svg width="112" height="194" viewBox="0 0 112 194" fill="none" xmlns="http://www.w3.org/2000/svg">
<path d="M14.1384 189.596L13.9972 189.685L13.8791 189.803L13.7584 189.924C11.5081 191.683 8.5036 192.001 5.72405 190.773C3.18421 189.573 1.5 186.849 1.5 183.955V57.0286C1.5 53.1816 3.16056 39.0428 5.84242 25.8119C7.18097 19.2082 8.75672 12.9202 10.4747 8.30929C11.3373 5.99424 12.2055 4.18608 13.049 2.98375C13.9507 1.69846 14.5408 1.5 14.7566 1.5H96.5554C98.1771 1.5 99.7345 2.02551 101.224 3.47762C102.759 4.97302 104.277 7.50872 105.603 11.622C108.26 19.8609 109.994 33.9217 109.994 57.0286V183.773C109.994 186.672 108.303 189.402 105.755 190.598L105.702 190.624L105.65 190.653C104.599 191.252 103.398 191.547 102.385 191.547C100.768 191.547 99.1119 190.967 97.7285 189.917L97.6151 189.803L97.4876 189.676L97.3335 189.583L55.7288 164.34L54.9353 163.859L54.1504 164.354L14.1384 189.596Z" fill="url(#paint0_linear)"/>
<path d="M14.1384 189.596L13.9972 189.685L13.8791 189.803L13.7584 189.924C11.5081 191.683 8.5036 192.001 5.72405 190.773C3.18421 189.573 1.5 186.849 1.5 183.955V57.0286C1.5 53.1816 3.16056 39.0428 5.84242 25.8119C7.18097 19.2082 8.75672 12.9202 10.4747 8.30929C11.3373 5.99424 12.2055 4.18608 13.049 2.98375C13.9507 1.69846 14.5408 1.5 14.7566 1.5H96.5554C98.1771 1.5 99.7345 2.02551 101.224 3.47762C102.759 4.97302 104.277 7.50872 105.603 11.622C108.26 19.8609 109.994 33.9217 109.994 57.0286V183.773C109.994 186.672 108.303 189.402 105.755 190.598L105.702 190.624L105.65 190.653C104.599 191.252 103.398 191.547 102.385 191.547C100.768 191.547 99.1119 190.967 97.7285 189.917L97.6151 189.803L97.4876 189.676L97.3335 189.583L55.7288 164.34L54.9353 163.859L54.1504 164.354L14.1384 189.596Z" stroke="url(#paint1_linear)" stroke-width="3" style="mix-blend-mode:soft-light"/>
<defs>
<linearGradient id="paint0_linear" x1="74.8373" y1="5.18524" x2="-51.8567" y2="82.8801" gradientUnits="userSpaceOnUse">
<stop offset="0.0289696" stop-color="#FE635F"/>
<stop offset="0.786458" stop-color="#E63632"/>
<stop offset="1" stop-color="#D92D2A"/>
</linearGradient>
<linearGradient id="paint1_linear" x1="57.098" y1="1.32057e-05" x2="72.5064" y2="218.928" gradientUnits="userSpaceOnUse">
<stop stop-color="white" stop-opacity="0.5"/>
<stop offset="0.40625" stop-color="white" stop-opacity="0"/>
<stop offset="0.625" stop-color="white" stop-opacity="0"/>
<stop offset="1" stop-color="white" stop-opacity="0.4"/>
</linearGradient>
</defs>
</svg>
